<svg width="40" height="40" fill="none" xmlns="http://www.w3.org/2000/svg"><path d="M39.902 37.386l-1.697-5.99a5.376 5.376 0 01.207-3.572 19.919 19.919 0 001.575-8.551C39.61 8.71 30.927.19 20.362.003 9.029-.198-.198 9.029.002 20.362.193 30.928 8.71 39.61 19.27 39.987a19.984 19.984 0 007.55-1.183c1.869-.678 3.898-.794 5.808-.25l4.752 1.351c1.537.438 2.957-.982 2.522-2.519zM11.065 20a8.935 8.935 0 1117.87 0 8.935 8.935 0 01-17.87 0z" fill="url(#paint0_linear)"/><defs><linearGradient id="paint0_linear" x1="4.852" y1="0" x2="40.375" y2="2.97" gradientUnits="userSpaceOnUse"><stop stop-color="#DF5950"/><stop offset="1" stop-color="#451046"/></linearGradient></defs></svg>